# xmcd
#
# Track frame offsets: 
#        150
#        25405
#        44310
#        65530
#        84935
#        105263
#        130545
#        154103
#        175403
#        194695
#        212635
#        229233
#        249555
#        273465
#
# Disc length: 3987 seconds
#
# Revision: 5
# Processed by: cddbd v1.5.2PL0 Copyright (c) Steve Scherf et al.
# Submitted via: ExactAudioCopyFreeDBPlugin 1.0
#
DISCID=bd0f910e
DTITLE=THE YELLOW MONKEY - MOTHER OF ALL THE BEST [Disc 1]
DYEAR=2004
DGENRE=Rock
TTITLE0=NAI
TTITLE1=SPARK
TTITLE2=楽園
TTITLE3=TVのシンガー
TTITLE4=TACTICS
TTITLE5=球根
TTITLE6=BURN
TTITLE7=LOVE LOVE SHOW
TTITLE8=HOTEL 宇宙船
TTITLE9=カナリヤ
TTITLE10=パール
TTITLE11=花吹雪
TTITLE12=JAM
TTITLE13=空と青と本当の気持ち
EXTD=YEAR: 2004
EXTT0=
EXTT1=
EXTT2=
EXTT3=
EXTT4=
EXTT5=
EXTT6=
EXTT7=
EXTT8=
EXTT9=
EXTT10=
EXTT11=
EXTT12=
EXTT13=
PLAYORDER=
